<svg xmlns="http://www.w3.org/2000/svg" width="472.065" height="458.824" viewBox="0 0 472.065 458.824">
  <g id="wine" transform="matrix(0.819, -0.574, 0.574, 0.819, -42.302, 188.395)">
    <path id="Path_3" data-name="Path 3" d="M228.6,34.067a5.621,5.621,0,0,0-3.824-5.173c-.676-.229-16.869-5.652-44.332-11.6a5.623,5.623,0,1,0-2.381,10.991c19.3,4.18,33.09,8.157,39.35,10.074-.379,30.836-.2,249.645-107.256,232.311-18.133-3.2-31.506-11.654-40.886-25.859-23.935-36.246-15.4-101.964-4.03-150.711a5.623,5.623,0,0,0-10.952-2.555C39.283,158.568,25.571,260.292,102.7,280.6L91.454,344.331,52.689,337.5a5.623,5.623,0,0,0-1.952,11.075l88.6,15.614a5.623,5.623,0,1,0,1.952-11.075l-38.764-6.831,11.246-63.735a80.5,80.5,0,0,0,8.975.511C219.206,285.032,230.244,96.234,228.6,34.067Z" transform="translate(0 -4.295)" fill="#e7e7e7"/>
    <path id="Path_4" data-name="Path 4" d="M70.082,70.476a5.633,5.633,0,0,0,6.911-3.934c7.2-26.216,14.67-46.986,17.716-55.127A552.8,552.8,0,0,1,159.6,19.224a5.623,5.623,0,1,0,1.952-11.075C119.56.748,92.179.029,91.033,0a5.625,5.625,0,0,0-5.361,3.552c-.1.251-10.06,25.543-19.524,60.01a5.623,5.623,0,0,0,3.934,6.911Z" transform="translate(-5.834 0)" fill="#e7e7e7"/>
    <path id="Path_5" data-name="Path 5" d="M136.005,82.667c-12.176-2.146-22.744-2-31.412.439a5.623,5.623,0,0,0-3.889,3.881c-16.534,54.349-26.013,131.366-7.53,160.462,6.549,11.692,16.2,18.3,30.36,20.8,13.026,2.45,25.483-.168,35.664-9.179,20.765-17.906,36.493-60.057,44.285-118.691.848-6.384,1.609-13.01,2.262-19.693a5.622,5.622,0,0,0-4.045-5.951c-33.97-9.379-30.6-25.388-65.7-32.062Zm56.33,56.224c-8.19,58.125-26.219,126.647-66.849,118.276-10.87-1.915-17.6-6.465-22.5-15.216-11.985-21.394-11.988-63.3-.007-118,2.17-9.9,4.741-20.225,7.656-30.722,6.5-1.252,14.359-1.08,23.419.516,15.058,2.654,21.259,7.444,29.112,13.507,7.182,5.546,15.244,11.771,30.923,16.907-.527,5-1.114,9.937-1.751,14.735Z" transform="translate(-10.119 -20.31)" fill="#e7e7e7"/>
    <path id="Path_6" data-name="Path 6" d="M313.388,51.841q2.05-.374,4.157-.746a552.9,552.9,0,0,1,64.888-7.809c8.394,22.519,50.438,141.5,28.79,209.406a5.623,5.623,0,1,0,10.715,3.417c20.636-53.4-10.9-173.594-30.462-220.682a5.624,5.624,0,0,0-5.361-3.552c-1.145.027-28.528.746-70.521,8.146q-2.141.377-4.229.759a5.623,5.623,0,1,0,2.021,11.063Z" transform="translate(-66.094 -7.975)" fill="#e7e7e7"/>
    <path id="Path_7" data-name="Path 7" d="M285.077,227.59a5.624,5.624,0,0,0-4.014,6.865c8.663,33.06,20.336,56.1,34.7,68.484,7.839,6.758,16.373,10.038,26.373,10.038a53.491,53.491,0,0,0,9.293-.859c14.165-2.5,23.812-9.105,30.359-20.794,13.332-23.8,13.752-68.513,1.182-125.906a5.623,5.623,0,0,0-10.986,2.406c11.98,54.7,11.978,96.609-.008,118-4.9,8.75-11.629,13.3-22.5,15.216s-18.761-.064-26.369-6.621c-12.424-10.714-23.2-32.436-31.161-62.817A5.619,5.619,0,0,0,285.077,227.59Z" transform="translate(-59.619 -40.288)" fill="#e7e7e7"/>
    <path id="Path_8" data-name="Path 8" d="M305.886,145.71a5.593,5.593,0,0,0,3.167-.981c2.8-1.912,5.234-3.793,7.589-5.61,7.851-6.063,14.053-10.853,29.111-13.506,9.06-1.6,16.919-1.768,23.419-.516.663,2.387,1.314,4.789,1.946,7.172a5.623,5.623,0,0,0,10.871-2.879c-.928-3.507-1.9-7.051-2.887-10.535a5.621,5.621,0,0,0-3.889-3.88c-8.669-2.437-19.237-2.584-31.412-.438-22.535,4.19-27.819,11.66-41.092,20.906a5.624,5.624,0,0,0,3.177,10.267Z" transform="translate(-64.469 -28.285)" fill="#e7e7e7"/>
    <path id="Path_9" data-name="Path 9" d="M406.613,434.37,367.848,441.2,356.6,377.465c18.028-4.365,32.213-14,42.219-28.705a5.623,5.623,0,1,0-9.3-6.328c-9.362,13.756-22.571,21.968-40.381,25.106-34.324,6.05-61.114-12.578-79.6-55.367a5.623,5.623,0,0,0-10.323,4.46c9.467,21.909,21.247,38.363,35.013,48.9,14.788,11.471,32.841,16.058,51.3,13.881l11.246,63.735-38.763,6.83a5.623,5.623,0,0,0,1.952,11.075l88.6-15.613a5.622,5.622,0,1,0-1.954-11.074Z" transform="translate(-54.083 -77.269)" fill="#e7e7e7"/>
    <g id="Group_2" data-name="Group 2" transform="translate(99.553 117.693)">
      <path id="Path_10" data-name="Path 10" d="M124.175,219.135a5.623,5.623,0,0,0-5.623,5.623c.257,7.444,10.99,7.442,11.246,0A5.623,5.623,0,0,0,124.175,219.135Z" transform="translate(-118.552 -172.53)" fill="#e7e7e7"/>
      <path id="Path_11" data-name="Path 11" d="M149.373,280.047A5.623,5.623,0,0,0,155,285.67c7.444-.257,7.442-10.99,0-11.246A5.623,5.623,0,0,0,149.373,280.047Z" transform="translate(-126.265 -186.366)" fill="#e7e7e7"/>
      <path id="Path_12" data-name="Path 12" d="M201.532,162.6a5.623,5.623,0,0,0-5.623-5.623c-7.444.257-7.442,10.99,0,11.246A5.623,5.623,0,0,0,201.532,162.6Z" transform="translate(-136.513 -156.975)" fill="#e7e7e7"/>
      <path id="Path_13" data-name="Path 13" d="M306.772,194.468a5.623,5.623,0,0,0,5.623,5.623c7.444-.257,7.442-10.99,0-11.246A5.623,5.623,0,0,0,306.772,194.468Z" transform="translate(-165.653 -164.95)" fill="#e7e7e7"/>
      <path id="Path_14" data-name="Path 14" d="M384.115,251.014a5.623,5.623,0,0,0-5.623,5.623c.257,7.444,10.99,7.442,11.246,0A5.623,5.623,0,0,0,384.115,251.014Z" transform="translate(-183.6 -180.508)" fill="#e7e7e7"/>
      <path id="Path_15" data-name="Path 15" d="M353.3,306.3a5.623,5.623,0,0,0-5.623,5.623c.257,7.444,10.99,7.442,11.246,0A5.622,5.622,0,0,0,353.3,306.3Z" transform="translate(-175.888 -194.341)" fill="#e7e7e7"/>
    </g>
  </g>
</svg>
