<svg xmlns="http://www.w3.org/2000/svg" xmlns:xlink="http://www.w3.org/1999/xlink" width="50" height="50" viewBox="0 0 50 50">
  <defs>
    <clipPath id="clip-path">
      <rect id="Rectangle_2" data-name="Rectangle 2" width="50" height="50" transform="translate(1490)" fill="#bb3b9c" stroke="#333" stroke-width="1"/>
    </clipPath>
  </defs>
  <g id="Mask_Group_1" data-name="Mask Group 1" transform="translate(-1490)" clip-path="url(#clip-path)">
    <g id="cocktail" transform="translate(1490)">
      <path id="Path_1" data-name="Path 1" d="M40.906,0a9.229,9.229,0,0,0-9.163,8.237h-6.4a.979.979,0,0,0,0,1.958h13.2L32.8,15.943a4.286,4.286,0,0,1-3.868-.048,6.189,6.189,0,0,0-6.007,0,4.27,4.27,0,0,1-3.957,0,6.1,6.1,0,0,0-3.954-.709L11.347,10.2h5.2a.979.979,0,1,0,0-1.958H9.909L4.646,1.066A.979.979,0,0,0,3.067,2.224L7.481,8.237H.979A.979.979,0,0,0,.287,9.908l7.507,7.51.029.029,6.3,6.307L16.1,28.381A2.784,2.784,0,0,0,19.017,30.4h.947V41.874l-8.551,6.492A.979.979,0,0,0,12,50.125H29.878a.979.979,0,0,0,.592-1.759l-8.549-6.492V30.4h.947a2.784,2.784,0,0,0,2.915-2.019l1.974-4.627,6.3-6.306.03-.03,1.027-1.027A9.218,9.218,0,1,0,40.906,0ZM9.088,15.943,3.342,10.2H8.918l4.14,5.641-.1.06a4.285,4.285,0,0,1-3.868.048ZM26.97,48.166H14.913l6.03-4.578ZM23.983,27.613c-.321.751-.425.829-1.114.829H19.017c-.69,0-.794-.078-1.114-.829l-1.467-3.438h9.013Zm2.543-5.4H15.36l-3.893-3.895a5.611,5.611,0,0,0,2.516-.759,4.263,4.263,0,0,1,3.956,0,6.2,6.2,0,0,0,6.01,0,4.263,4.263,0,0,1,3.954,0,5.614,5.614,0,0,0,2.517.76Zm7.189-13.98a7.221,7.221,0,0,1,1.418-3.411l3.411,3.411Zm6.212,8.174A7.173,7.173,0,0,1,36.512,15l3.416-3.417Zm0-9.559-3.41-3.411a7.22,7.22,0,0,1,3.41-1.417ZM48.1,8.237H43.27l3.412-3.412A7.224,7.224,0,0,1,48.1,8.237ZM41.885,2.026A7.223,7.223,0,0,1,45.3,3.441L41.885,6.853Zm0,14.384V11.58L45.3,14.992A7.225,7.225,0,0,1,41.885,16.409Zm4.8-2.8L43.27,10.2H48.1A7.225,7.225,0,0,1,46.682,13.608Z" transform="translate(0)" fill="#bb3b9c"/>
      <path id="Path_2" data-name="Path 2" d="M28.859,13.461h.006a.982.982,0,1,0-.006,0Z" transform="translate(-7.916 -3.266)" fill="#bb3b9c"/>
    </g>
  </g>
</svg>
