<svg id="XMLID_1383_" xmlns="http://www.w3.org/2000/svg" width="303.5" height="303.5" viewBox="0 0 303.5 303.5">
  <g id="XMLID_1109_">
    <path id="XMLID_1112_" d="M124.066,295.03a5.93,5.93,0,0,0,2.26,4.309,121.967,121.967,0,0,0,75.943,26.226,123.437,123.437,0,0,0,123.3-123.3,121.97,121.97,0,0,0-26.226-75.943,5.929,5.929,0,0,0-8.857-.535L125.79,290.481a5.928,5.928,0,0,0-1.725,4.548Zm128.413-55.78a13.056,13.056,0,0,1-13.041-13.041V203.881h26.082v22.328A13.056,13.056,0,0,1,252.478,239.25Zm-48.607-10.081V260.5a14.836,14.836,0,0,1-14.819,14.819h-24.9a14.8,14.8,0,0,1-5.415-1.021Zm-53.916,53.916a26.557,26.557,0,0,0,14.2,4.092h24.9A26.705,26.705,0,0,0,215.726,260.5V217.313l11.855-11.855v20.751a24.937,24.937,0,0,0,18.969,24.178v21.828h-3.437a5.928,5.928,0,0,0,0,11.855h18.729a5.928,5.928,0,0,0,0-11.855h-3.436V250.386a24.937,24.937,0,0,0,18.969-24.178V197.952a5.928,5.928,0,0,0-5.928-5.928H241.014L294,139.042a110.076,110.076,0,0,1,19.714,63.225A111.568,111.568,0,0,1,202.268,313.709,110.073,110.073,0,0,1,139.043,294Z" transform="translate(-50.518 -50.518)" fill="#ff2727"/>
    <path id="XMLID_1120_" d="M247.24,74.226A121.97,121.97,0,0,0,171.3,48,123.437,123.437,0,0,0,48,171.3,121.964,121.964,0,0,0,74.227,247.24a5.927,5.927,0,0,0,4.308,2.26q.179.012.357.011a5.928,5.928,0,0,0,4.191-1.736L247.775,83.083a5.928,5.928,0,0,0-.535-8.857Zm-95.088,34.83H139.111V93.347h13.041Zm-18.969,29.639a5.928,5.928,0,0,0,5.928-5.928V120.911h13.041v11.855a5.928,5.928,0,0,0,5.928,5.928,14.827,14.827,0,0,1,11.649,5.669l-51.364,51.364V153.514A14.836,14.836,0,0,1,133.183,138.694Zm44.963-2.75a26.717,26.717,0,0,0-14.139-8.439V92.963a11.484,11.484,0,0,0-11.471-11.471h-13.81a11.485,11.485,0,0,0-11.471,11.471V127.5a26.722,26.722,0,0,0-20.747,26.011v54.069L79.569,234.522A110.073,110.073,0,0,1,59.855,171.3,111.568,111.568,0,0,1,171.3,59.855a110.071,110.071,0,0,1,63.225,19.714Z" transform="translate(-19.547 -19.547)" fill="#ff2727"/>
    <path id="XMLID_1134_" d="M259.054,44.446A151.787,151.787,0,0,0,66.837,25.963a5.928,5.928,0,0,0,6.641,9.82A139.176,139.176,0,0,1,151.75,11.855c77.138,0,139.895,62.756,139.895,139.895S228.888,291.645,151.75,291.645,11.855,228.888,11.855,151.75A139,139,0,0,1,37.218,71.4a5.928,5.928,0,1,0-9.7-6.818A151.757,151.757,0,0,0,259.054,259.054a151.752,151.752,0,0,0,0-214.608Z" fill="#ff2727"/>
    <path id="XMLID_1135_" d="M79.658,82.245a5.92,5.92,0,1,0-4.191-1.731A5.967,5.967,0,0,0,79.658,82.245Z" transform="translate(-30.025 -28.665)" fill="#ff2727"/>
  </g>
</svg>
