<svg xmlns="http://www.w3.org/2000/svg" xmlns:xlink="http://www.w3.org/1999/xlink" width="70" height="70" viewBox="0 0 70 70">
  <defs>
    <clipPath id="clip-path">
      <circle id="Ellipse_33" data-name="Ellipse 33" cx="35" cy="35" r="35" transform="translate(362 964)" fill="#fff" stroke="#bb3b9c" stroke-width="3"/>
    </clipPath>
  </defs>
  <g id="Mask_Group_2" data-name="Mask Group 2" transform="translate(-362 -964)" clip-path="url(#clip-path)">
    <path id="scrollTop" d="M35,70A35,35,0,0,1,10.251,10.251a35,35,0,0,1,49.5,49.5A34.771,34.771,0,0,1,35,70ZM35,5.469A29.531,29.531,0,1,0,64.531,35,29.565,29.565,0,0,0,35,5.469Zm18.906,34.18L35,20.742,16.094,39.648l3.867,3.867L35,28.476,50.039,43.515Zm0,0" transform="translate(362 964)" fill="#bb3b9c"/>
  </g>
</svg>
